<?xml version="1.0" encoding="UTF-8"?>
<svg id="Layer_2" data-name="Layer 2" xmlns="http://www.w3.org/2000/svg" viewBox="0 0 97.4 97.4">
  <defs>
    <style>
      .cls-1 {
        fill: none;
        stroke-width: 2px;
      }

      .cls-1, .cls-2 {
        stroke: #29292c;
        stroke-miterlimit: 10;
      }

      .cls-2 {
        fill: #29292c;
        font-family: BookAntiqua, 'Book Antiqua';
        font-size: 33.07px;
      }
    </style>
  </defs>
  <g id="Lag_2" data-name="Lag 2">
    <g>
      <path class="cls-1" d="M36.43,91.73h-6.31c-2.34,0-4.24-1.9-4.24-4.24V9.99c0-2.34,1.9-4.24,4.24-4.24h6.88"/>
      <path class="cls-1" d="M60.51,5.75h6.76c2.34,0,4.24,1.9,4.24,4.24v77.5c0,2.34-1.9,4.24-4.24,4.24h-6.76"/>
      <path class="cls-1" d="M85.96,63.87c0,2.34-1.9,4.24-4.24,4.24H14.3c-2.34,0-4.24-1.9-4.24-4.24l.19-4.17"/>
      <line class="cls-1" x1="85.96" y1="60.63" x2="85.96" y2="64.1"/>
      <path class="cls-1" d="M10.18,38.15l-.11-5.01c0-2.34,1.9-4.24,4.24-4.24h67.41c2.34,0,4.24,1.9,4.24,4.24v3.61"/>
      <path class="cls-1" d="M22.34,71.79L2.24,51.7c-1.66-1.66-1.66-4.34,0-6l19.87-19.87"/>
      <path class="cls-1" d="M66.7,80.15l-15,15c-1.66,1.66-4.34,1.66-6,0l-15.33-15.33"/>
      <line class="cls-1" x1="85.96" y1="60.89" x2="75.06" y2="71.79"/>
      <path class="cls-1" d="M75.28,25.83l19.87,19.87c1.66,1.66,1.66,4.34,0,6l-9.19,9.19"/>
      <path class="cls-1" d="M30.37,17.57l15.33-15.33c1.66-1.66,4.34-1.66,6,0l15.56,15.56"/>
      <path class="cls-1" d="M29.01,25.07l16.54-16.54c1.66-1.66,4.34-1.66,6,0l16.77,16.77"/>
      <path class="cls-1" d="M21.27,64.32l-12.76-12.76c-1.66-1.66-1.66-4.34,0-6l12.79-12.79"/>
      <path class="cls-1" d="M68.12,72.02l-16.58,16.58c-1.66,1.66-4.34,1.66-6,0l-16.67-16.67"/>
      <path class="cls-1" d="M76.3,33.29l12.28,12.28c1.66,1.66,1.66,4.34,0,6l-12.98,12.98"/>
    </g>
    <text class="cls-2" transform="translate(37.23 60.86) scale(1.04 1)"><tspan x="0" y="0">T</tspan></text>
  </g>
</svg>