<?xml version="1.0" encoding="UTF-8"?>
<svg id="Layer_2" data-name="Layer 2" xmlns="http://www.w3.org/2000/svg" viewBox="0 0 338.78 278.95">
  <defs>
    <style>
      .cls-1 {
        fill: #000;
        font-family: BookAntiqua, 'Book Antiqua';
        font-size: 53.79px;
      }

      .cls-1, .cls-2, .cls-3, .cls-4 {
        stroke-miterlimit: 10;
      }

      .cls-1, .cls-3, .cls-4 {
        stroke: #000;
      }

      .cls-2 {
        stroke: #478e50;
        stroke-width: 2px;
      }

      .cls-2, .cls-3, .cls-4 {
        fill: none;
      }

      .cls-3 {
        stroke-width: 5px;
      }

      .cls-4 {
        stroke-width: 3px;
      }
    </style>
  </defs>
  <g id="Layer_2-2" data-name="Layer 2">
    <g>
      <g>
        <line class="cls-3" x1="79.28" y1="130.47" x2="2.5" y2="267.89"/>
        <polyline class="cls-3" points="80.38 130.47 156.05 267.89 156.05 130.47 79.28 130.47 2.5 130.47 2.5 267.89 81.37 267.45"/>
        <line class="cls-3" x1="2.5" y1="194.78" x2="156.05" y2="194.78"/>
        <line class="cls-3" x1="33.73" y1="212" x2="125.28" y2="212"/>
      </g>
      <line class="cls-3" x1="79.28" y1="130.47" x2="79.28" y2="267.89"/>
    </g>
    <g>
      <path class="cls-2" d="M174.69,26.59c-1.5-6-4.5-6-11.15-7.85-6.65-1.85-11.36,3.35-11.36,3.35l-12.56,8.1c-5.04,3.59-4.41,11.64-4.41,11.64,0,0,.47,4.26,1.97,10.26s10.5,3,10.5,3c0,0,7.5-6,11.88-5.7,4.38.3,9.12-3.3,11.37-4.85,2.25-1.56,5.25-8.96,5.25-8.96,0,0,0-3-1.5-9Z"/>
      <path class="cls-2" d="M231.58,11.72c-2.87,2.91-2.87,4.47-2.87,4.47v8.9c0,7.5-6,4.5-6,4.5,0,0-3-3-4.5-7.5s-10.5-3-10.5-3c0,0-4.5,0-6-1.5s1.5-6,1.5-6c0,0,3-4.5,4.5-6s3.54-1.26,3.54-1.26c-1.86-.6-4.22-1.23-7.04-1.79,2.51,1.46-2.51,6.05-2.51,6.05,0,0-4.5,4.5-4.5,9s-12,7.5-12,7.5c0,0-4.5-1.5-7.5-7.5s-4.5-4.5-12-4.5-6-4.5-6-6c0-1.41,2.58-2.81,2.91-2.97-2.4.56-4.86,1.23-7.41,2v5.48c0,4.5-3,4.5-3,4.5,0,0-10.5,7.5-15.14,12.06-4.62,4.56-8.87,2.94-8.87,2.94l-7.47-2.94c-1.01,1.08-1.97,2.18-2.88,3.26l.06-.03c6.21,4.77,10.29,11.72,10.29,11.72,0,0,3,7.5,6,19.51,3,12-1.5,9-1.5,9-15.01-3-27.37-21.77-27.37-21.77-1.11,2.06-2.03,3.9-2.75,5.45l22.61,18.89s16.51,7.94,43.52,4.94,37.51-15.01,50.88-27.46c9.59-8.91,15.52-26.36,18.11-35.56-2.01-1.76-4.08-3.18-6.11-4.37ZM137.18,52.1c-1.5-6-1.97-10.26-1.97-10.26,0,0-.63-8.06,4.41-11.64l12.56-8.1s4.71-5.19,11.36-3.35c6.65,1.85,9.65,1.85,11.15,7.85s1.5,9,1.5,9c0,0-3,7.4-5.25,8.96-2.25,1.55-6.99,5.15-11.37,4.85-4.38-.3-11.88,5.7-11.88,5.7,0,0-9,3-10.5-3ZM174.69,73.11c-4.5-1.5-10.29,1.07-10.29,1.07h-12.72s-16-1.07-9.99-7.07c0,0,1.5-6,9-7.5s13.67-1.08,13.67-1.08c0,0,7.34,5.58,10.34,5.58,2.25,0,8.09,1.68,10.89,2.53.68.21.87,1.08.33,1.54-2.39,2.01-7.79,6.07-11.21,4.93ZM212.05,51.65c-11.85,12.45-17.86,10.95-17.86,10.95,0,0-7.77-5.28-11.39-4.14-2.49.79-7.2-.75-9.87-1.79-1.17-.45-1.83-1.69-1.52-2.91.81-3.28,2.6-9.26,4.78-9.22,3,.05,7.5-10.46,7.5-10.46l10.5-7.5s7.5-4.5,13.5-3,10.5,12,10.5,12c0,0,5.7,3.62-6.15,16.06Z"/>
      <path class="cls-2" d="M155.18,6.11v5.48c0,4.5-3,4.5-3,4.5,0,0-10.5,7.5-15.14,12.06-4.62,4.56-8.87,2.94-8.87,2.94l-7.47-2.94c8.31-8.94,19.4-17.41,33.73-21.82.26-.08.51-.15.75-.23Z"/>
      <path class="cls-2" d="M132.68,71.61c-15.01-3-27.37-21.77-27.37-21.77v-.03c2.84-5.22,6.93-11.81,12.51-18.4l.06-.03c6.21,4.77,10.29,11.72,10.29,11.72,0,0,3,7.5,6,19.51,3,12-1.5,9-1.5,9Z"/>
      <path class="cls-2" d="M201.7,8.59s-4.5,4.5-4.5,9-12,7.5-12,7.5c0,0-4.5-1.5-7.5-7.5s-4.5-4.5-12-4.5-6-4.5-6-6c0-1.41,2.58-2.81,2.91-2.97.02-.01.03-.01.03-.01,18.22-4.34,32.35-3.39,41.55-1.58.01,0,.01.02.03.02,2.51,1.46-2.51,6.05-2.51,6.05Z"/>
      <path class="cls-2" d="M231.58,11.72c-2.87,2.91-2.87,4.47-2.87,4.47v8.9c0,7.5-6,4.5-6,4.5,0,0-3-3-4.5-7.5s-10.5-3-10.5-3c0,0-4.5,0-6-1.5s1.5-6,1.5-6c0,0,3-4.5,4.5-6s3.54-1.26,3.54-1.26h.02c3.39,1.08,5.16,2.01,5.16,2.01,0,0,7.22.75,15.16,5.39Z"/>
      <path class="cls-2" d="M176.19,35.6s-3,7.4-5.25,8.96c-2.25,1.55-6.99,5.15-11.37,4.85-4.38-.3-11.88,5.7-11.88,5.7,0,0-9,3-10.5-3s-1.97-10.26-1.97-10.26c0,0-.63-8.06,4.41-11.64l12.56-8.1s4.71-5.19,11.36-3.35c6.65,1.85,9.65,1.85,11.15,7.85s1.5,9,1.5,9Z"/>
      <path class="cls-2" d="M185.95,66.75c.52.16.66.83.25,1.18-2.22,1.9-7.94,6.37-11.51,5.18-4.5-1.5-10.29,1.07-10.29,1.07h-12.72s-16-1.07-9.99-7.07c0,0,1.5-6,9-7.5s13.67-1.08,13.67-1.08c0,0,7.34,5.58,10.34,5.58,2.35,0,8.64,1.84,11.26,2.64Z"/>
      <path class="cls-2" d="M212.05,51.65c-11.85,12.45-17.86,10.95-17.86,10.95,0,0-7.77-5.28-11.39-4.14-2.51.79-7.26-.78-9.93-1.81-1.14-.44-1.77-1.64-1.48-2.83.81-3.26,2.6-9.32,4.79-9.28,3,.05,7.5-10.46,7.5-10.46l10.5-7.5s7.5-4.5,13.5-3,10.5,12,10.5,12c0,0,5.7,3.62-6.15,16.06Z"/>
      <path class="cls-2" d="M241.46,19.84s-3.59,26.47-20.1,39.98c-22.41,18.34-23.55,24.2-61.52,25.51-43.52,1.5-59.43-24.97-59.43-24.97,0,0,.69-1.92,2.15-5.07l22.61,18.89s16.51,7.94,43.52,4.94,37.51-15.01,50.88-27.46c9.59-8.91,15.52-26.36,18.11-35.56,1.31,1.11,2.57,2.37,3.78,3.75Z"/>
      <path class="cls-2" d="M88.82,66.32s6.5,1,11.01-2c0,0,9,10.5,12,12,0,0-13.5,3-24.01-7.5,0,0-4-3.49,1-2.5Z"/>
      <path class="cls-2" d="M125.33,85.33s-12,6-16.51,24.01c0,0,10.5,4.5,30.01-4.5,0,0,10.5-4.5,15.01-15.01,0,0-19.51,1.5-28.51-4.5Z"/>
      <path class="cls-2" d="M243.87,47.81s17.93,1.71,15.72,26.36-26.22,27.66-26.22,27.66c0,0-7.5,1.5-1.5-3s1.46-19.04,1.46-19.04c0,0-7.46-9.47-7.46-12.47,0,0,9-13.5,11.82-18,0,0,3.19-3.01,6.19-1.51Z"/>
      <path class="cls-2" d="M290.06,27.05c.98-.22,1.56-1.23,1.2-2.17-1.75-4.64-7.52-16.08-21.88-16.08-18.01,0-19.51,6-19.51,6,0,0-4.5,6-4.5,12s3,12,7.5,12c4.75,0,24.01,0,28.51-6,2.95-3.93,6.54-5.29,8.67-5.76Z"/>
      <path class="cls-2" d="M278.39,22.3s-9.22-3-12.11,1.5c0,0,1.61,6,12.11-1.5Z"/>
    </g>
    <g>
      <path class="cls-4" d="M239.75,269.87h-10.26c-3.81,0-6.9-3.09-6.9-6.9v-126.05c0-3.81,3.09-6.9,6.9-6.9h11.19"/>
      <path class="cls-4" d="M278.91,130.02h11c3.81,0,6.9,3.09,6.9,6.9v126.05c0,3.81-3.09,6.9-6.9,6.9h-11"/>
      <path class="cls-4" d="M320.3,224.56c0,3.81-3.09,6.9-6.9,6.9h-109.64c-3.81,0-6.9-3.09-6.9-6.9l.31-6.77"/>
      <line class="cls-4" x1="320.3" y1="219.29" x2="320.3" y2="224.93"/>
      <path class="cls-4" d="M197.05,182.73l-.19-8.14c0-3.81,3.09-6.9,6.9-6.9h109.64c3.81,0,6.9,3.09,6.9,6.9v5.87"/>
      <path class="cls-4" d="M216.83,237.44l-32.68-32.68c-2.69-2.69-2.69-7.06,0-9.76l32.32-32.32"/>
      <path class="cls-4" d="M288.98,251.03l-24.4,24.4c-2.69,2.69-7.06,2.69-9.76,0l-24.93-24.93"/>
      <line class="cls-4" x1="320.3" y1="219.71" x2="302.57" y2="237.44"/>
      <path class="cls-4" d="M302.93,162.68l32.32,32.32c2.69,2.69,2.69,7.06,0,9.76l-14.95,14.95"/>
      <path class="cls-4" d="M229.89,149.25l24.93-24.93c2.69-2.69,7.06-2.69,9.76,0l25.3,25.3"/>
      <path class="cls-4" d="M227.67,161.45l26.9-26.9c2.69-2.69,7.06-2.69,9.76,0l27.27,27.27"/>
      <path class="cls-4" d="M215.09,225.29l-20.75-20.75c-2.69-2.69-2.69-7.06,0-9.76l20.81-20.81"/>
      <path class="cls-4" d="M291.29,237.81l-26.96,26.96c-2.69,2.69-7.06,2.69-9.76,0l-27.12-27.12"/>
      <path class="cls-4" d="M304.59,174.82l19.97,19.97c2.69,2.69,2.69,7.06,0,9.76l-21.12,21.12"/>
    </g>
    <text class="cls-1" transform="translate(241.05 219.66) scale(1.04 1)"><tspan x="0" y="0">T</tspan></text>
  </g>
</svg>