<?xml version="1.0" encoding="UTF-8"?>
<svg id="Layer_2" data-name="Layer 2" xmlns="http://www.w3.org/2000/svg" viewBox="0 0 655.11 540.17">
  <defs>
    <style>
      .cls-1 {
        fill: #000;
        font-family: BookAntiqua, 'Book Antiqua';
        font-size: 104.62px;
      }

      .cls-1, .cls-2, .cls-3, .cls-4 {
        stroke-miterlimit: 10;
      }

      .cls-1, .cls-3, .cls-4 {
        stroke: #000;
      }

      .cls-2 {
        stroke: #478e50;
        stroke-width: 2px;
      }

      .cls-2, .cls-3, .cls-4 {
        fill: none;
      }

      .cls-3 {
        stroke-width: 5px;
      }

      .cls-4 {
        stroke-width: 3px;
      }
    </style>
  </defs>
  <g id="Layer_1-2" data-name="Layer 1">
    <g>
      <g>
        <line class="cls-3" x1="151.82" y1="252.8" x2="2.5" y2="520.08"/>
        <polyline class="cls-3" points="153.98 252.8 301.15 520.08 301.15 252.8 151.82 252.8 2.5 252.8 2.5 520.08 155.89 519.23"/>
        <line class="cls-3" x1="2.5" y1="377.88" x2="301.15" y2="377.88"/>
        <line class="cls-3" x1="63.23" y1="411.38" x2="241.29" y2="411.38"/>
      </g>
      <line class="cls-3" x1="151.82" y1="252.8" x2="151.82" y2="520.08"/>
    </g>
    <g>
      <path class="cls-2" d="M337.4,50.78c-2.92-11.67-8.76-11.67-21.68-15.26-12.93-3.59-22.09,6.51-22.09,6.51l-24.43,15.76c-9.81,6.98-8.58,22.65-8.58,22.65,0,0,.9,8.29,3.82,19.96s20.43,5.84,20.43,5.84c0,0,14.59-11.67,23.11-11.09,8.52.58,17.74-6.42,22.12-9.43,4.38-3.04,10.21-17.42,10.21-17.42,0,0,0-5.84-2.92-17.51Z"/>
      <path class="cls-2" d="M448.03,21.86c-5.57,5.66-5.57,8.7-5.57,8.7v17.31c0,14.59-11.67,8.76-11.67,8.76,0,0-5.84-5.84-8.76-14.59-2.92-8.76-20.43-5.84-20.43-5.84,0,0-8.76,0-11.67-2.92s2.92-11.67,2.92-11.67c0,0,5.84-8.76,8.76-11.67s6.89-2.45,6.89-2.45c-3.62-1.17-8.2-2.39-13.69-3.47,4.87,2.83-4.87,11.76-4.87,11.76,0,0-8.76,8.76-8.76,17.51s-23.35,14.59-23.35,14.59c0,0-8.76-2.92-14.59-14.59-5.84-11.67-8.76-8.76-23.35-8.76s-11.67-8.76-11.67-11.67c0-2.74,5.02-5.46,5.66-5.78-4.67,1.08-9.46,2.39-14.42,3.88v10.65c0,8.76-5.84,8.76-5.84,8.76,0,0-20.43,14.59-29.45,23.46-8.99,8.87-17.25,5.72-17.25,5.72l-14.53-5.72c-1.96,2.1-3.82,4.23-5.6,6.33l.12-.06c12.08,9.28,20.02,22.79,20.02,22.79,0,0,5.84,14.59,11.67,37.94,5.84,23.35-2.92,17.51-2.92,17.51-29.18-5.84-53.23-42.35-53.23-42.35-2.16,4-3.94,7.59-5.34,10.59l43.98,36.74s32.1,15.44,84.63,9.6c52.53-5.84,72.96-29.18,98.96-53.41,18.65-17.34,30.18-51.28,35.23-69.17-3.91-3.41-7.94-6.19-11.88-8.49ZM264.44,100.39c-2.92-11.67-3.82-19.96-3.82-19.96,0,0-1.23-15.67,8.58-22.65l24.43-15.76s9.16-10.1,22.09-6.51c12.93,3.59,18.77,3.59,21.68,15.26,2.92,11.67,2.92,17.51,2.92,17.51,0,0-5.84,14.39-10.21,17.42-4.38,3.01-13.6,10.01-22.12,9.43-8.52-.58-23.11,11.09-23.11,11.09,0,0-17.51,5.84-20.43-5.84ZM337.4,141.25c-8.76-2.92-20.02,2.07-20.02,2.07h-24.75s-31.11-2.07-19.44-13.75c0,0,2.92-11.67,17.51-14.59,14.59-2.92,26.59-2.1,26.59-2.1,0,0,14.27,10.86,20.11,10.86,4.37,0,15.73,3.27,21.17,4.91,1.33.4,1.7,2.11.63,3-4.66,3.92-15.15,11.81-21.81,9.59ZM410.07,99.52c-23.06,24.22-34.73,21.3-34.73,21.3,0,0-15.12-10.27-22.15-8.05-4.85,1.53-14-1.47-19.2-3.47-2.28-.88-3.55-3.28-2.96-5.65,1.58-6.37,5.05-18.01,9.29-17.93,5.84.09,14.59-20.34,14.59-20.34l20.43-14.59s14.59-8.76,26.27-5.84c11.67,2.92,20.43,23.35,20.43,23.35,0,0,11.09,7.03-11.97,31.23Z"/>
      <path class="cls-2" d="M299.46,10.94v10.65c0,8.76-5.84,8.76-5.84,8.76,0,0-20.43,14.59-29.45,23.46-8.99,8.87-17.25,5.72-17.25,5.72l-14.53-5.72c16.17-17.39,37.73-33.85,65.61-42.43.5-.15.99-.29,1.46-.44Z"/>
      <path class="cls-2" d="M255.68,138.33c-29.18-5.84-53.23-42.35-53.23-42.35v-.06c5.52-10.16,13.48-22.97,24.34-35.78l.12-.06c12.08,9.28,20.02,22.79,20.02,22.79,0,0,5.84,14.59,11.67,37.94,5.84,23.35-2.92,17.51-2.92,17.51Z"/>
      <path class="cls-2" d="M389.93,15.76s-8.76,8.76-8.76,17.51-23.35,14.59-23.35,14.59c0,0-8.76-2.92-14.59-14.59-5.84-11.67-8.76-8.76-23.35-8.76s-11.67-8.76-11.67-11.67c0-2.74,5.02-5.46,5.66-5.78.03-.03.06-.03.06-.03,35.43-8.43,62.92-6.6,80.81-3.06.03,0,.03.03.06.03,4.87,2.83-4.87,11.76-4.87,11.76Z"/>
      <path class="cls-2" d="M448.03,21.86c-5.57,5.66-5.57,8.7-5.57,8.7v17.31c0,14.59-11.67,8.76-11.67,8.76,0,0-5.84-5.84-8.76-14.59-2.92-8.76-20.43-5.84-20.43-5.84,0,0-8.76,0-11.67-2.92s2.92-11.67,2.92-11.67c0,0,5.84-8.76,8.76-11.67s6.89-2.45,6.89-2.45h.03c6.6,2.1,10.04,3.91,10.04,3.91,0,0,14.04,1.46,29.48,10.48Z"/>
      <path class="cls-2" d="M340.32,68.29s-5.84,14.39-10.21,17.42c-4.38,3.01-13.6,10.01-22.12,9.43-8.52-.58-23.11,11.09-23.11,11.09,0,0-17.51,5.84-20.43-5.84s-3.82-19.96-3.82-19.96c0,0-1.23-15.67,8.58-22.65l24.43-15.76s9.16-10.1,22.09-6.51c12.93,3.59,18.77,3.59,21.68,15.26,2.92,11.67,2.92,17.51,2.92,17.51Z"/>
      <path class="cls-2" d="M359.29,128.87c1.01.31,1.28,1.61.48,2.3-4.31,3.7-15.44,12.39-22.38,10.08-8.76-2.92-20.02,2.07-20.02,2.07h-24.75s-31.11-2.07-19.44-13.75c0,0,2.92-11.67,17.51-14.59,14.59-2.92,26.59-2.1,26.59-2.1,0,0,14.27,10.86,20.11,10.86,4.57,0,16.81,3.58,21.9,5.13Z"/>
      <path class="cls-2" d="M410.07,99.52c-23.06,24.22-34.73,21.3-34.73,21.3,0,0-15.12-10.27-22.15-8.05-4.89,1.54-14.12-1.51-19.31-3.52-2.21-.86-3.45-3.19-2.88-5.5,1.57-6.35,5.05-18.13,9.32-18.04,5.84.09,14.59-20.34,14.59-20.34l20.43-14.59s14.59-8.76,26.27-5.84c11.67,2.92,20.43,23.35,20.43,23.35,0,0,11.09,7.03-11.97,31.23Z"/>
      <path class="cls-2" d="M467.27,37.65s-6.99,51.48-39.09,77.75c-43.59,35.67-45.81,47.07-119.65,49.61-84.63,2.92-115.58-48.57-115.58-48.57,0,0,1.34-3.74,4.17-9.86l43.98,36.74s32.1,15.44,84.63,9.6c52.53-5.84,72.96-29.18,98.96-53.41,18.65-17.34,30.18-51.28,35.23-69.17,2.54,2.16,4.99,4.61,7.35,7.3Z"/>
      <path class="cls-2" d="M170.38,128.05s12.65,1.94,21.4-3.9c0,0,17.51,20.43,23.35,23.35,0,0-26.27,5.84-46.69-14.59,0,0-7.79-6.8,1.94-4.86Z"/>
      <path class="cls-2" d="M241.4,165.01s-23.35,11.67-32.1,46.69c0,0,20.43,8.76,58.37-8.76,0,0,20.43-8.76,29.18-29.18,0,0-37.94,2.92-55.45-8.76Z"/>
      <path class="cls-2" d="M471.95,92.05s34.87,3.32,30.57,51.27c-4.3,47.95-51,53.79-51,53.79,0,0-14.59,2.92-2.92-5.84,11.67-8.76,2.83-37.03,2.83-37.03,0,0-14.51-18.42-14.51-24.25,0,0,17.51-26.27,22.98-35.01,0,0,6.2-5.85,12.04-2.93Z"/>
      <path class="cls-2" d="M561.78,51.67c1.91-.42,3.03-2.39,2.34-4.22-3.41-9.03-14.63-31.28-42.55-31.28-35.02,0-37.94,11.67-37.94,11.67,0,0-8.76,11.67-8.76,23.35s5.84,23.35,14.59,23.35c9.23,0,46.69,0,55.45-11.67,5.74-7.65,12.73-10.29,16.86-11.2Z"/>
      <path class="cls-2" d="M539.07,42.43s-17.94-5.84-23.56,2.92c0,0,3.13,11.67,23.56-2.92Z"/>
    </g>
    <g>
      <path class="cls-4" d="M463.93,523.92h-19.95c-7.41,0-13.42-6.01-13.42-13.42v-245.16c0-7.41,6.01-13.42,13.42-13.42h21.76"/>
      <path class="cls-4" d="M540.09,251.93h21.4c7.41,0,13.42,6.01,13.42,13.42v245.16c0,7.41-6.01,13.42-13.42,13.42h-21.4"/>
      <path class="cls-4" d="M620.6,435.8c0,7.41-6.01,13.42-13.42,13.42h-213.24c-7.41,0-13.42-6.01-13.42-13.42l.6-13.18"/>
      <line class="cls-4" x1="620.6" y1="425.55" x2="620.6" y2="436.52"/>
      <path class="cls-4" d="M380.88,354.44l-.36-15.84c0-7.41,6.01-13.42,13.42-13.42h213.24c7.41,0,13.42,6.01,13.42,13.42v11.42"/>
      <path class="cls-4" d="M419.35,460.85l-63.56-63.56c-5.24-5.24-5.24-13.74,0-18.98l62.86-62.86"/>
      <path class="cls-4" d="M559.67,487.3l-47.45,47.45c-5.24,5.24-13.74,5.24-18.98,0l-48.49-48.49"/>
      <line class="cls-4" x1="620.6" y1="426.37" x2="586.12" y2="460.85"/>
      <path class="cls-4" d="M586.82,315.45l62.86,62.86c5.24,5.24,5.24,13.74,0,18.98l-29.08,29.08"/>
      <path class="cls-4" d="M444.76,289.34l48.49-48.49c5.24-5.24,13.74-5.24,18.98,0l49.21,49.21"/>
      <path class="cls-4" d="M440.44,313.07l52.32-52.32c5.24-5.24,13.74-5.24,18.98,0l53.04,53.04"/>
      <path class="cls-4" d="M415.97,437.22l-40.35-40.35c-5.24-5.24-5.24-13.74,0-18.98l40.47-40.47"/>
      <path class="cls-4" d="M564.17,461.58l-52.44,52.44c-5.24,5.24-13.74,5.24-18.98,0l-52.74-52.74"/>
      <path class="cls-4" d="M590.05,339.06l38.83,38.83c5.24,5.24,5.24,13.74,0,18.98l-41.07,41.07"/>
    </g>
    <text class="cls-1" transform="translate(466.47 426.28) scale(1.04 1)"><tspan x="0" y="0">T</tspan></text>
  </g>
</svg>