<?xml version="1.0" encoding="UTF-8"?>
<svg id="Layer_2" data-name="Layer 2" xmlns="http://www.w3.org/2000/svg" viewBox="0 0 373.21 664.14">
  <defs>
    <style>
      .cls-1 {
        fill: #bf8d67;
      }

      .cls-1, .cls-2, .cls-3, .cls-4, .cls-5, .cls-6, .cls-7, .cls-8, .cls-9, .cls-10, .cls-11, .cls-12 {
        stroke-width: 0px;
      }

      .cls-2 {
        fill: #2e3a4c;
      }

      .cls-3 {
        fill: #8c0e26;
      }

      .cls-13 {
        stroke: #cea386;
      }

      .cls-13, .cls-14, .cls-15, .cls-16, .cls-17, .cls-18, .cls-19, .cls-20, .cls-21, .cls-22, .cls-23, .cls-24 {
        stroke-miterlimit: 10;
      }

      .cls-13, .cls-14, .cls-15, .cls-17, .cls-18, .cls-19, .cls-20, .cls-21, .cls-22, .cls-23 {
        fill: none;
      }

      .cls-14 {
        stroke: #190d06;
      }

      .cls-14, .cls-17, .cls-22, .cls-23 {
        stroke-width: .5px;
      }

      .cls-15 {
        stroke: #b5b5b5;
      }

      .cls-16, .cls-18, .cls-24 {
        stroke: #d4af37;
      }

      .cls-16, .cls-11 {
        fill: #d4af37;
      }

      .cls-4 {
        fill: #774b39;
      }

      .cls-17 {
        stroke: #000;
      }

      .cls-19 {
        stroke: #934747;
      }

      .cls-5 {
        fill: #efddda;
      }

      .cls-6 {
        fill: #f7c9a6;
      }

      .cls-7 {
        fill: #241213;
      }

      .cls-8 {
        fill: #ad5550;
      }

      .cls-20 {
        stroke: #e2a67d;
      }

      .cls-21, .cls-22 {
        stroke: #bf8d67;
      }

      .cls-9 {
        fill: #7e5e44;
      }

      .cls-10 {
        fill: #fff;
      }

      .cls-23 {
        stroke: #7e5e44;
      }

      .cls-12 {
        fill: #0a090a;
      }

      .cls-24 {
        fill: #fff3d2;
      }
    </style>
  </defs>
  <g id="Layer_1-2" data-name="Layer 1">
    <path class="cls-6" d="M180.14,257.27c5.95-1.47,13.37-3.97,20.38-11.58.15-.16.29-.33.42-.51l7.16-9.55c.19-.25.35-.51.49-.79l6.03-11.67c.07-.14.14-.29.2-.44l6.52-15.83c.04-.11.08-.22.12-.32l6.3-18.49,3.6-10.7s3.92-12.82,0-21.51l-6.68-15.58-8.74-19.89c-.04-.09-.08-.19-.11-.28l-5.19-13.8c-.04-.11-.08-.21-.13-.31l-3.85-12.35-5.51-13.25c-.27-.53-3.29-2.76-3.71-3.18l-12.28-9.95c-.08-.08-.16-.16-.24-.23l-14.59-12.93c-.15-.13-.31-.26-.48-.38l-12.47-8.83-14.41-10.92-10.69-7.61c-.22-.16-.45-.29-.69-.42l-10.97-5.64c-.15-.08-.3-.15-.46-.21l-8.76-3.54c-.29-.12-.6-.21-.91-.28l-8.93-1.95c-.86-.19-1.75-.17-2.6.05l-8.24,2.14c-.43.11-.87.17-1.31.18l-11.94.2-10.21.2c-.33,0-.66.04-.99.11l-9.87,1.97c-.85.17-1.66.54-2.34,1.08l-12.1,9.45c-.28.22-.54.47-.78.74l-7.75,8.91c-.25.29-.47.61-.66.94l-7.41,13.26c-.24.43-.42.89-.54,1.37l-4.87,19.48c-.02.1-.05.2-.07.3l-1.99,10.35c-.07.35-.1.7-.1,1.06v11.61c0,.66.12,1.32.35,1.95l10.53,28.35c.1.26.21.51.34.75l11.01,20.62,6.39,12.09c.14.28.3.54.48.79l5.13,7.04,4.4,6.15c.1.14.21.28.32.41l5.13,5.9c.21.24.4.5.56.78l2.73,4.52c.06.1.12.2.17.31l2.5,4.8c.05.09.1.18.15.27l4.49,7.59c.13.22.28.44.44.64l6.64,8.33c.14.18.3.35.46.51l8.69,8.49c.12.11.24.22.37.33l6.54,5.35c.18.15.35.3.5.47l6.29,6.59c.1.11.2.21.31.3l7.77,6.96c.15.14.32.27.49.39l6.91,4.92c.38.27.79.49,1.22.66l9,3.48c.14.05.27.1.41.14l19.29,5.78c.21.06.42.11.64.15l14.83,2.59,12.12,1.43c1.56.18,3.15.08,4.67-.3Z"/>
    <path class="cls-6" d="M203.53,73s1.38-14.94,9.64-13.14c8.27,1.8,11.02,13.14,11.02,13.14,0,0,.8,3.52,2.86,12.4s3.71,13.88,3.71,13.88c0,0,7.21,17.47-2.23,25.86-1.91,1.7-10.36,0-10.36,0l-7.51-19.12-3.85-12.35-2.9-6.18-.39-5.26v-9.22Z"/>
    <path class="cls-6" d="M153.41,254.49l9.53,11.29,11.23,9.11s49.81,37.52,26.28,88.18l-12.22-1.34s-1.34,25.93-12.58,32.71h-10.6l-8.27-1.91.85,38.79c2.12,25.65,5.79,33.14,9.75,44.09,3.69,10.22,19.93,32.08,26.77,31.37,0,0,14.35,6.99,37.25,1.7l13.35-.85,15.05-3.82s7.42-3.82,8.05.64c0,0,13.35-2.12,15.69-3.82l2.12,1.27s46-10.6,55.32-65.92c0,0,2.38-2.18,0-60.41,0,0-3.6-30.73-5.3-68.25l-1.67-44.24s-16.06,13.78-11.19,15.27,9.26,14.13,9.26,14.13c0,0-4.45-4.1-7.84-2.61s1.98,6.08,1.34,9.68-.78,2.12-.78,2.12c0,0-4.8-2.83-2.9-3.46s-5.93,1.48-5.3,6.36-.64,9.33-.64,9.33l-4.24-9.11s-27.34,6.15-43.66-19.29c0,0-21.06-19.57-29.96-47.97,0,0-1.98-2.12-9.16-54.44l-7.99,23.51-6.84,16.59-6.03,11.67-8.07,10.84s-7.13,10.66-25.06,11.88l-12.12-1.43-9.42-1.65Z"/>
    <path class="cls-6" d="M72.78,430.76l6.64,22.61,17.17,40.27,12.72,37.52,21.62,50.87,9.96,23.95,8.9,24.38,8.05,19.29,21.41,3.18,25.44,3.82,43.67,7.49-12.08-14.06-13.78-10.17-1.48-10.81-6.15-34.34s-60.82-16.96-62.95-74.82l-4.8-32.57s-11.09-8.48-5.16-14.77c0,0-6.43-1.63-4.03-9.54,0,0-11.59,1.2-20.49-2.83-8.9-4.03-11.38,0-44.65-29.46Z"/>
    <path class="cls-20" d="M154.49,254.68l14.68,2.2s21.75,6.11,39.06-21.25c17.31-27.36,19.84-49.93,19.84-49.93"/>
    <polyline class="cls-13" points="267.36 456.98 272.17 483.54 276.81 502.76"/>
    <path class="cls-22" d="M208.08,88.48l.85-9.54s.64-26.18,11.76-4.35l2.54,11.66,4.13,11.13.95,7.74s1.91,18.12-5.72,13.35"/>
    <path class="cls-22" d="M208.08,97.75l5.91,5.21c.58.51,1.04,1.15,1.32,1.88.79,2.01,1.9,6.26-.56,10.56"/>
    <path class="cls-12" d="M148.52,308.26l-32.64,19-17.38,7.71-17.38,13.57s-25.44,17.8-21.2,44.51c7.91,20.91,1.98,20.63,1.98,20.63l-1.13,5.23s.99,2.12,2.54,3.82,9.54,8.9,9.54,8.9c0,0,24.94,21.18,31.13,23.91s12.92,4.96,12.92,4.96c0,0,3.86,3.56,19.96,2.71,0,0-1.66,9.01,3.89,9.54,0,0-5.33,5.23,5.09,14.7l6.08,32.15s-5.09,47.48,60.3,75.99l10.28,43.98,23.74,23.87,126.97-.77V229.62h-4.66l-37.02,15.05,1.73,23.74,1.8,42.29s1.8,63.91,3.92,64.76,2.86,60.36,1.8,60.14-1.88,46.73-52.66,65.46l-1.82.51-2.12-1.27s-7.79,3.39-15.69,3.82c0,0-.48-4.56-8.05-.64l-15.05,3.82-13.35.85s-19.91,5.35-37.25-1.7c-17.33-7.05-26.77-31.37-26.77-31.37,0,0-9.28-22.68-9.75-44.09l-.85-38.79,8.27,1.91,10.63-.02s11.09-7.08,13.95-25.2l-15.61-70.23-26.14,9.61Z"/>
    <circle class="cls-15" cx="295.06" cy="619.2" r="5.72"/>
    <circle class="cls-15" cx="261.64" cy="520.43" r="5.72"/>
    <circle class="cls-15" cx="275.28" cy="569.88" r="5.72"/>
    <circle class="cls-15" cx="312.86" cy="653.26" r="5.72"/>
    <path class="cls-9" d="M91.93,0h52.99s43.31,2.53,72.7,53.82c29.39,51.3,46.84,70.37,46.84,70.37,0,0,13.99,16.11,23.53,44.72,9.54,28.62,36.03,66.34,36.03,66.34h35.82l-3.6,2.33-6.99,1.27,2.33,1.06,3.18,2.76-4.66,1.27-.95,3.71-2.86,1.91.11,6.15-3.29,1.7-3.5-2.54.21,3.39-2.33,4.45-3.71,3.82-4.13,2.01,2.54,5.19-1.8,4.13-1.7,3.5,1.27,4.03,2.12,4.24.95,3.5-2.65-1.06-5.19-1.7.95,4.77.64,6.36-.85,1.48-5.41-3.39s-1.91,6.04-2.01,6.68-.53,4.45-.64,5.51-.95,4.03-.95,4.03l-2.12-2.23-1.27,1.17-1.59-3.82-.64-4.35s-70.21,9.82-82.93-121.81l2.45-6.95s4.31-11.94-1.06-25.22l-11.6-27.45s5.48,1.35,10.03.23c0,0,4-3.37,4.58-7.47s1.3-6.89-2.02-18.61c0,0-3.39-11.01-4.48-17.19l-2.09-9.1s-2.23-12.47-13.48-13.18c0,0-5.95.66-7.12,12.55,0,0-.04,6.24-.07,9.42s1.91,8.55,1.91,8.55l-4.13-9.93-15.99-13.13-14.83-13.16-12.95-9.21-13.23-10.02-12.14-8.68-10.03-5.18-10.58-4.45-11.07-2.35-9.6,2.32-24.12.64-9.03,1.79s-2.21-.31-5.17,2.6l-9.99,7.8-8.67,9.64-8.39,14.56-5.48,21.15-1.99,10.35-.1,12.66,11.98,31,16.64,32.76,10.02,13.98,5.45,6.31,10.61,18.26,7.08,8.97s10.81,11.32,16.06,14.68c0,0,11.81,13.29,22.27,19.63,0,0,12.23,5.73,29.93,10.06l6.39,1.16,13,7.84s59.84,44.09,33.7,100.68l-2.97,5.44-4.06,4.45c-.14.15-.38.02-.34-.18l1.07-4.84-.7-5.09-.69,5.25-2.35,4.79-1.55,5.93-3.67,8.34-1.98,5.09-.85,8.76-1.41,4.52-3.67,3.82,1.13-3.96,1.27-4.95-.14-4.38-1.7,1.55-1.27,4.66-1.41,2.68-2.54,1.41.28-3.11.28-3.39.28-3.39-2.26.28-1.27,1.27-2.12-.99-1.13.85-2.54.28-.85-1.27-1.41,1.41-2.97-.42-1.97,1.28-3.53-1.14-2.27-3.11-1.13,2.97-3.67.85-.99-3.39-1.27-2.83-3.25-.85-.71-2.54-2.26.42-2.26-2.54-1.55.85-.99,1.13-5.79-7.63-.71,2.12-2.83-1.98s-21.06-30.1-30.1-55.68c-9.04-25.58-25.01-57.51-25.01-57.51l-40.56-61.75-17.52-43.1-4.95-18.79L.02,120.52V28.6s-.72-9.96,7.12-12.93c0,0,.42-15.67,8.27-15.67h76.52Z"/>
    <path class="cls-9" d="M72.64,300.76s-2.54-21.41-17.38-40.91c-14.84-19.5-30.46-62.85-30.46-62.85l6.61,13.72,37.84,57.61s7.31,15.05,9.11,26.07,14.34,47.4,32.98,66.57c0,0-21.46-7.29-38.7-60.21Z"/>
    <path class="cls-23" d="M9.9,152.55l7.07,78.34s7,55.96,74.3,76.87"/>
    <path class="cls-23" d="M10.53,158.53l8.12,78.96s13.82,47.01,81.12,67.93"/>
    <path class="cls-23" d="M13.5,164.39s-5.51,112.85,72.49,132.14"/>
    <path class="cls-23" d="M13.42,162.77s-2.97,88.39,36.29,120.6"/>
    <path class="cls-23" d="M14.56,165.48s4.17,116.42,65.68,145.03"/>
    <path class="cls-23" d="M16.68,169.87s6.3,100.64,59.67,141.45"/>
    <path class="cls-23" d="M14.64,167.2s2.48,125.95,39.28,122.51"/>
    <path class="cls-23" d="M18.8,178.46s-1.13,90.6,23.04,107.12"/>
    <path class="cls-23" d="M11.7,160.16l13.85,77.43s11.84,55.14,80.7,70.12"/>
    <path class="cls-23" d="M12.86,166.07l14.95,77.96s17.86,45.63,86.72,60.62"/>
    <path class="cls-23" d="M16.32,171.64s4.32,112.9,83.7,125.33"/>
    <path class="cls-23" d="M16.1,170.04s4.73,88.31,46.64,116.99"/>
    <path class="cls-23" d="M17.47,172.64s14.28,115.61,78.03,138.77"/>
    <path class="cls-23" d="M19.97,176.82s15.02,99.71,71.74,135.73"/>
    <path class="cls-23" d="M17.71,174.35s13.42,125.26,49.78,118.63"/>
    <path class="cls-23" d="M22.82,185.2s6.75,90.35,32.26,104.71"/>
    <path class="cls-23" d="M18.53,152.02l7.07,78.34s7,55.96,74.3,76.87"/>
    <path class="cls-23" d="M19.17,158l8.12,78.96s13.82,47.01,81.12,67.93"/>
    <path class="cls-23" d="M22.14,163.85s-5.51,112.85,72.49,132.14"/>
    <path class="cls-23" d="M22.05,162.24s-2.97,88.39,36.29,120.6"/>
    <path class="cls-23" d="M23.2,164.95s4.17,116.42,65.68,145.03"/>
    <path class="cls-23" d="M25.31,169.33s6.3,100.64,59.67,141.45"/>
    <path class="cls-23" d="M23.28,166.67s2.48,125.95,39.28,122.51"/>
    <path class="cls-23" d="M27.43,177.92s-1.13,90.6,23.04,107.12"/>
    <path class="cls-23" d="M20.34,159.63l13.85,77.43s11.84,55.14,80.7,70.12"/>
    <path class="cls-23" d="M21.49,165.53l14.95,77.96s17.86,45.63,86.72,60.62"/>
    <path class="cls-23" d="M24.96,171.11s4.32,112.9,83.7,125.33"/>
    <path class="cls-23" d="M24.73,169.51s4.73,88.31,46.64,116.99"/>
    <path class="cls-23" d="M26.11,172.1s14.28,115.61,78.03,138.77"/>
    <path class="cls-23" d="M28.6,176.29s15.02,99.71,71.74,135.73"/>
    <path class="cls-23" d="M26.34,173.81s13.42,125.26,49.78,118.63"/>
    <path class="cls-23" d="M31.46,184.66s6.75,90.35,32.26,104.71"/>
    <path class="cls-3" d="M221.29,123.39s11.03.02,8.62,5.44c-2.54,5.72-8.62-5.44-8.62-5.44Z"/>
    <path class="cls-11" d="M222.73,126.47s7.8,7.8,2.27,9.94c-5.84,2.26-2.27-9.94-2.27-9.94"/>
    <path class="cls-3" d="M227.73,133.1s5.69,9.44-.19,10.19c-6.21.79.19-10.19.19-10.19"/>
    <path class="cls-11" d="M226.76,128.93s10.29,3.97,6.1,8.17c-4.43,4.43-6.1-8.17-6.1-8.17Z"/>
    <path class="cls-3" d="M230.77,138.21s9.62,5.4,4.87,8.95c-5.01,3.75-4.87-8.95-4.87-8.95Z"/>
    <path class="cls-11" d="M230.26,141.41s5,8.41-.05,8.98c-4.75.53.05-8.98.05-8.98Z"/>
    <path class="cls-11" d="M233.13,148.23s10.1,4.44,5.72,8.44c-4.62,4.22-5.72-8.44-5.72-8.44Z"/>
    <path class="cls-3" d="M232.6,149.82s4.35,7.91.18,7.91c-4.88,0-.18-7.91-.18-7.91Z"/>
    <path class="cls-3" d="M234.8,156.84s7.97,7.63,2.48,9.89c-5.79,2.39-2.48-9.89-2.48-9.89Z"/>
    <polyline class="cls-18" points="206.67 345.57 242.14 372.3 264.65 287"/>
    <path class="cls-16" d="M241.75,373.04l1.29-.72c.17-.09.35.08.37.37l.46,5.69c.04.49-.37.72-.52.28l-1.75-4.98c-.09-.25-.01-.56.15-.65Z"/>
    <circle class="cls-24" cx="246.56" cy="389.18" r="10.28"/>
    <line class="cls-18" x1="242.72" y1="379.61" x2="249.59" y2="399.01"/>
    <line class="cls-18" x1="239.28" y1="381.93" x2="253.06" y2="397.15"/>
    <line class="cls-18" x1="236.98" y1="385.47" x2="255.85" y2="393.59"/>
    <line class="cls-18" x1="236.28" y1="389.15" x2="256.84" y2="389.32"/>
    <line class="cls-18" x1="236.92" y1="392.75" x2="256.38" y2="386.15"/>
    <line class="cls-18" x1="247.06" y1="378.92" x2="246.09" y2="399.38"/>
    <line class="cls-18" x1="241.98" y1="398.38" x2="251.34" y2="380.06"/>
    <line class="cls-18" x1="238.85" y1="395.98" x2="254.98" y2="382.49"/>
    <circle class="cls-16" cx="246.65" cy="389.39" r="3.52"/>
    <path class="cls-14" d="M60.7,167.49s6.15,1.5,8.8.88"/>
    <path class="cls-14" d="M60.3,168.16s6.15,1.5,8.8.88"/>
    <path class="cls-14" d="M60.22,168.86s6.2,1.38,8.84.71"/>
    <path class="cls-14" d="M59.66,170.47s6.27,1.17,8.89.42"/>
    <path class="cls-14" d="M59.53,171.22s6.27,1.17,8.89.42"/>
    <path class="cls-14" d="M62.39,173.84s5.65.12,6.58-1.3"/>
    <path class="cls-14" d="M63.96,175.35s4.55-.46,5.97-2.85"/>
    <path class="cls-14" d="M66.42,176.64s3.73-1.49,4.58-4.42"/>
    <line class="cls-17" x1="67.84" y1="157.49" x2="72.69" y2="160.45"/>
    <path class="cls-14" d="M65.71,159s4.61,2.66,6.91,2.54"/>
    <path class="cls-14" d="M63.8,159.91s5.58,2.67,8.23,2.54"/>
    <path class="cls-14" d="M63.52,160.69s5.58,2.67,8.23,2.54"/>
    <path class="cls-14" d="M62.44,162.58s5.65,2.55,8.3,2.38"/>
    <path class="cls-14" d="M62.14,163.28s5.76,2.36,8.42,2.1"/>
    <path class="cls-14" d="M61.61,164.46s5.76,2.36,8.42,2.1"/>
    <path class="cls-14" d="M61.37,165.5s5.94,1.99,8.6,1.57"/>
    <path class="cls-14" d="M72.73,151.72s5.48,3.26,4.6,4.18"/>
    <path class="cls-14" d="M71.76,152.05s5.48,3.26,4.6,4.18"/>
    <path class="cls-14" d="M71.39,152.33s4.79,3.97,3.77,4.77"/>
    <path class="cls-14" d="M69.54,154.88s6.02,2.51,5.3,3.53"/>
    <path class="cls-14" d="M68.62,155.32s6.02,2.51,5.3,3.53"/>
    <path class="cls-14" d="M68.31,155.65s5.45,3.3,4.56,4.21"/>
    <path class="cls-14" d="M82.79,148.04s3.14,1.25,2.2,3.91"/>
    <path class="cls-14" d="M81.32,148.23s3.14,1.25,2.2,3.91"/>
    <path class="cls-14" d="M80.31,148.92s3.14,1.25,2.2,3.91"/>
    <path class="cls-14" d="M76.65,148.91s5.48,3.26,4.6,4.18"/>
    <path class="cls-14" d="M81.32,148.23s3.14,1.25,2.2,3.91"/>
    <path class="cls-14" d="M75.68,149.23s5.48,3.26,4.6,4.18"/>
    <path class="cls-14" d="M75.31,149.51s4.79,3.97,3.77,4.77"/>
    <path class="cls-14" d="M90.91,148.46s3.01,1.54,1.82,4.1"/>
    <path class="cls-14" d="M93.51,148.39s2.69,1.42,1.82,3.52"/>
    <path class="cls-14" d="M92.31,148.57s2.45,1.26,1.48,3.35"/>
    <path class="cls-14" d="M85.35,148.31s3.01,1.54,1.82,4.1"/>
    <path class="cls-14" d="M87.95,148.24s2.69,1.42,1.82,3.52"/>
    <path class="cls-14" d="M86.75,148.42s2.45,1.26,1.48,3.35"/>
    <line class="cls-17" x1="142.3" y1="97.27" x2="144.09" y2="102.18"/>
    <path class="cls-14" d="M135.68,100.08s1.94,5.52,3,5.07"/>
    <path class="cls-14" d="M136.19,99.37s1.94,5.52,3,5.07"/>
    <path class="cls-14" d="M136.55,99.16s2.76,5.16,3.74,4.55"/>
    <path class="cls-21" d="M123.51,114.23s3.39-26.92,32.43-22.47"/>
    <path class="cls-14" d="M130.66,107.23s.53,2.98,3.25,2.99"/>
    <path class="cls-14" d="M131.16,106.07s.53,2.98,3.25,2.99"/>
    <path class="cls-14" d="M132.02,105.44s.53,2.98,3.25,2.99"/>
    <path class="cls-14" d="M132.79,102.4s1.94,5.52,3,5.07"/>
    <path class="cls-14" d="M131.16,106.07s.53,2.98,3.25,2.99"/>
    <path class="cls-14" d="M133.3,101.69s1.94,5.52,3,5.07"/>
    <path class="cls-14" d="M133.65,101.47s2.76,5.16,3.74,4.55"/>
    <path class="cls-14" d="M143.72,95.43s1.55,4.62.95,6.49"/>
    <path class="cls-14" d="M139.46,97.9s1.12,5.75,2.23,5.45"/>
    <path class="cls-14" d="M140.07,97.27s1.12,5.75,2.23,5.45"/>
    <path class="cls-14" d="M140.45,97.11s1.98,5.51,3.04,5.05"/>
    <path class="cls-14" d="M144.99,94.12s1.35,5.43.67,7.59"/>
    <path class="cls-14" d="M145.79,94.12s1.35,5.43.67,7.59"/>
    <path class="cls-14" d="M147.81,93.79s1.23,5.45.5,7.6"/>
    <path class="cls-14" d="M148.54,93.74s1.03,5.48.22,7.61"/>
    <path class="cls-14" d="M149.78,93.66s1.03,5.48.22,7.61"/>
    <path class="cls-14" d="M150.81,93.77s.64,5.53-.32,7.61"/>
    <path class="cls-14" d="M152.84,93.81s.12,5.55-1.03,7.56"/>
    <path class="cls-14" d="M153.56,93.68s.12,5.55-1.03,7.56"/>
    <path class="cls-14" d="M154.24,93.82s0,5.55-1.19,7.54"/>
    <path class="cls-14" d="M155.89,93.84s-.21,5.55-1.48,7.51"/>
    <path class="cls-14" d="M156.63,93.95s-.21,5.55-1.48,7.51"/>
    <path class="cls-14" d="M158.52,97.11s-1.08,4.72-2.63,5.07"/>
    <path class="cls-14" d="M159.61,98.86s-1.4,3.64-3.97,4.1"/>
    <path class="cls-14" d="M160.32,101.29s-2.21,2.65-5.17,2.48"/>
    <path class="cls-14" d="M128.63,114.72s.53,2.98,3.25,2.99"/>
    <path class="cls-14" d="M127.79,116.77s.51,2.68,2.71,2.77"/>
    <path class="cls-14" d="M128.32,115.88s.43,2.43,2.65,2.44"/>
    <path class="cls-4" d="M109.72,106.77c-.39.43-1.02.58-1.56.37-3.79-1.48-5.04-4.85-5.45-6.62-.15-.67-.05-1.37.29-1.98l4.68-8.4c1.63-2.93,3.62-5.65,5.96-8.05,8.33-8.56,15.8-11.74,15.8-11.74,26.5-6.99,37.09,4.66,37.09,4.66-13.14-7.21-33.07,0-33.07,0-5.72,3.19-9.19,8.66-11.21,13.19-1.01,2.27-2.27,4.41-3.73,6.42l-8.81,12.14Z"/>
    <path class="cls-4" d="M78.82,124.57c1.32,1.38,3.01,3.83,2.35,6.85-.09.41-.38.75-.78.89-3.09,1.06-17.58,6.2-23.44,11.11-3.05,2.56-9.33,6.36-9.61,16.82l-.22,2.55-3.56-7.18.74-4.94s1.77-9.29,6.85-13.74c4.26-3.73,19.8-10.72,24.76-12.9.99-.44,2.16-.22,2.9.56Z"/>
    <path class="cls-21" d="M59.92,158.18s11.45-17.03,31.79-13.85"/>
    <path class="cls-8" d="M152.23,209.72s-1.54-7.1,19.08-12.4c8.37-2.97,10.46-3.84,10.46-3.84,0,0-1.24,7.45-1.24,7.39s-1.7,7.37-1.7,7.37c0,0-3.02,8.4-16.53,17.17-3.89,2.52-9.27,6.05-13.86,5.4s-10.66-1.82-13.27-3.6c0,0,2.61-3.5,3.04-5.09.51-1.91,10.1-15.37,14.02-12.4Z"/>
    <polyline class="cls-19" points="135.17 227.21 142.06 225.72 155.94 215.87 170.04 205.16 177.56 198.91 181.77 193.48"/>
    <path class="cls-21" d="M85.99,135.95s11.66.12,16.53,12.31,8.58,21.83,8.58,21.83l4.66,10.28s-2.39,13.88,9.83,14.3h7.03c2.69.13,5.3-.96,7.09-2.97,2.81-3.17,4.67-6.45,7.75-10.06s1.05-12.82-8.37-11.13"/>
    <ellipse class="cls-1" cx="143.09" cy="182.83" rx="4.77" ry="1.37" transform="translate(-88.93 190.98) rotate(-53.96)"/>
    <path class="cls-14" d="M130.15,110.23s.53,2.98,3.25,2.99"/>
    <path class="cls-14" d="M129.31,112.28s.51,2.68,2.71,2.77"/>
    <path class="cls-14" d="M129.83,111.39s.43,2.43,2.65,2.44"/>
    <path class="cls-5" d="M96.86,151.85s-25.32-6.42-28.6,20.95c0,0,18.97-3.88,28.6-20.95Z"/>
    <path class="cls-2" d="M88.72,154.85c1.89,3,.24,7.44-3.7,9.92-3.93,2.48-8.66,2.07-10.55-.93-1.89-3-.11-7.69,4.13-9.57s8.22-2.42,10.11.58Z"/>
    <ellipse class="cls-7" cx="82.16" cy="159.52" rx="5.15" ry="5" transform="translate(-72.47 68.49) rotate(-32.26)"/>
    <ellipse class="cls-10" cx="83.09" cy="157.97" rx=".71" ry=".54" transform="translate(-82.13 225.51) rotate(-84.49)"/>
    <path class="cls-5" d="M156.23,101.37s-20.63-6.57-29.18,22.47c0,0,28.76-5.62,29.18-22.47Z"/>
    <ellipse class="cls-2" cx="143.12" cy="110.23" rx="9.4" ry="6.78" transform="translate(-37.44 115.85) rotate(-39.39)"/>
    <ellipse class="cls-7" cx="143.32" cy="109.85" rx="5.55" ry="4.98" transform="translate(-35.72 86.38) rotate(-30)"/>
    <circle class="cls-10" cx="143.24" cy="109.91" r=".85"/>
  </g>
</svg>